<?xml version="1.0" encoding="UTF-8"?>
<!DOCTYPE svg PUBLIC "-//W3C//DTD SVG 1.1//EN" "http://www.w3.org/Graphics/SVG/1.1/DTD/svg11.dtd">
<!-- Creator: CorelDRAW X7 -->
<svg xmlns="http://www.w3.org/2000/svg" xml:space="preserve" width="24.8353mm" height="28.158mm" version="1.1" style="shape-rendering:geometricPrecision; text-rendering:geometricPrecision; image-rendering:optimizeQuality; fill-rule:evenodd; clip-rule:evenodd"
viewBox="0 0 2487 2819"
 xmlns:xlink="http://www.w3.org/1999/xlink">
 <defs>
  <style type="text/css">
   <![CDATA[
    .fil1 {fill:#B8BBBF}
    .fil0 {fill:#E61C88}
    .fil2 {fill:url(#id0)}
   ]]>
  </style>
  <linearGradient id="id0" gradientUnits="userSpaceOnUse" x1="212.768" y1="1782.83" x2="2274.01" y2="1782.83">
   <stop offset="0" style="stop-opacity:1; stop-color:#E0E0E0"/>
   <stop offset="0.211765" style="stop-opacity:1; stop-color:#EEEEEE"/>
   <stop offset="0.501961" style="stop-opacity:1; stop-color:#CCCCCC"/>
   <stop offset="0.74902" style="stop-opacity:1; stop-color:#EDEDED"/>
   <stop offset="1" style="stop-opacity:1; stop-color:#FEFEFE"/>
  </linearGradient>
 </defs>
 <g id="Layer_x0020_1">
  <metadata id="CorelCorpID_0Corel-Layer"/>
  <polygon class="fil0" points="1244,155 1574,827 913,827 "/>
  <polygon class="fil1" points="1244,1200 622,245 462,0 705,0 1244,827 1782,0 2024,0 1865,245 "/>
  <polygon class="fil2" points="1231,2667 213,898 2274,898 "/>
  <path class="fil1" d="M1190 2789l-568 -975 -622 -1067 1243 -1 1244 0 -622 1068c-189,325 -378,650 -567,975 -28,48 -90,32 -108,0zm54 -324l878 -1509 -1757 1 879 1508z"/>
 </g>
</svg>
